<?xml version="1.0" standalone="no"?>
<!DOCTYPE svg PUBLIC "-//W3C//DTD SVG 20010904//EN"
 "http://www.w3.org/TR/2001/REC-SVG-20010904/DTD/svg10.dtd">
<svg version="1.0" xmlns="http://www.w3.org/2000/svg"
 width="1920.000000pt" height="1120.000000pt" viewBox="0 0 1920.000000 1120.000000"
 preserveAspectRatio="xMidYMid meet">

<g transform="translate(0.000000,1120.000000) scale(0.100000,-0.100000)"
fill="#000000" stroke="none">
<path d="M5851 9033 c-17 -14 -50 -126 -162 -538 -77 -286 -202 -752 -279
-1035 -76 -283 -216 -801 -310 -1150 -94 -349 -188 -696 -208 -770 -19 -74
-38 -138 -41 -142 -4 -4 -155 361 -336 810 -181 449 -338 825 -347 834 -24 24
-83 23 -106 0 -10 -10 -72 -173 -137 -363 -65 -189 -156 -450 -201 -579 l-81
-235 -591 -5 c-463 -4 -594 -8 -604 -18 -7 -7 -51 -74 -98 -149 -47 -75 -89
-137 -94 -137 -14 -1 -216 365 -413 749 -97 187 -184 348 -195 358 -11 9 -33
17 -48 17 -15 0 -37 -8 -49 -17 -12 -11 -124 -262 -270 -603 l-250 -585 -515
4 -516 4 0 -80 0 -80 546 -7 c433 -5 551 -4 572 6 23 11 57 83 254 543 125
291 230 531 235 532 4 2 50 -81 102 -184 82 -165 289 -545 437 -803 56 -97 87
-120 134 -100 23 9 57 56 146 201 l116 189 588 0 589 0 26 23 c22 18 55 103
172 442 80 231 157 455 171 498 15 42 29 77 33 77 3 0 156 -370 338 -822 240
-596 339 -829 357 -845 32 -29 66 -29 98 0 21 19 64 166 321 1122 163 605 371
1378 463 1718 91 339 169 617 172 617 3 0 20 -120 38 -267 49 -398 215 -1734
357 -2878 69 -555 146 -1203 171 -1440 76 -722 79 -743 98 -764 25 -27 61 -34
94 -17 25 13 39 42 105 213 42 109 254 664 472 1233 218 569 400 1040 404
1048 6 11 9 11 18 0 21 -28 144 -239 182 -312 45 -88 63 -105 108 -106 67 0
119 80 249 380 l71 165 1394 7 c767 4 3233 10 5482 13 l4087 6 0 80 0 80
-4097 -6 c-2254 -3 -4740 -9 -5525 -13 -1410 -7 -1428 -7 -1447 -27 -10 -11
-49 -92 -86 -180 -37 -88 -79 -184 -94 -214 l-28 -54 -132 222 c-73 122 -141
226 -151 231 -28 15 -65 12 -89 -7 -20 -17 -63 -126 -541 -1373 -60 -157 -165
-433 -234 -613 -69 -181 -126 -333 -126 -338 0 -5 -3 -9 -8 -9 -4 0 -27 181
-50 402 -24 221 -139 1178 -257 2127 -329 2649 -355 2861 -355 2872 0 5 -11
21 -25 34 -29 30 -73 33 -104 8z"/>
</g>
</svg>
