<?xml version="1.0" standalone="no"?>
<!DOCTYPE svg PUBLIC "-//W3C//DTD SVG 20010904//EN"
 "http://www.w3.org/TR/2001/REC-SVG-20010904/DTD/svg10.dtd">
<svg version="1.0" xmlns="http://www.w3.org/2000/svg"
 width="598.000000pt" height="257.000000pt" viewBox="0 0 598.000000 257.000000"
 preserveAspectRatio="xMidYMid meet">

<g transform="translate(0.000000,257.000000) scale(0.100000,-0.100000)"
fill="#000000" stroke="none">
<path d="M4419 2513 c2 -45 9 -64 33 -94 33 -41 54 -54 63 -38 4 5 -2 12 -12
16 -24 8 -53 34 -53 46 0 5 7 7 15 3 13 -5 14 -2 4 15 -6 11 -8 23 -5 27 3 3
6 1 6 -4 0 -5 11 -10 25 -10 22 -2 23 0 13 19 -8 16 -8 22 1 25 6 2 11 8 11
14 0 5 -9 7 -20 3 -15 -5 -18 -3 -14 8 4 13 15 12 77 -4 40 -10 80 -16 91 -13
11 4 16 2 12 -4 -6 -10 117 28 129 40 4 4 -80 7 -187 8 l-193 1 4 -58z"/>
<path d="M4934 2410 c1 -17 7 -35 15 -39 9 -6 11 -17 6 -32 -11 -35 -116 -210
-129 -214 -6 -2 -28 -6 -49 -10 -27 -4 -55 -22 -101 -66 -57 -53 -99 -119 -77
-119 5 0 36 29 70 65 33 36 72 70 86 75 66 25 125 2 125 -50 0 -30 -21 -90
-32 -90 -4 0 -8 -19 -8 -43 0 -24 -7 -65 -16 -91 -9 -26 -13 -50 -10 -53 3 -4
6 1 6 10 0 9 7 20 16 25 14 8 21 34 23 90 1 7 5 11 11 7 10 -6 22 35 39 129
11 57 10 61 -14 85 l-24 26 30 49 c89 142 108 212 69 254 -28 30 -38 28 -36
-8z"/>
<path d="M4565 2348 c-44 -4 -97 -9 -118 -12 -70 -8 -117 -57 -100 -104 9 -23
9 -23 31 -4 12 11 22 24 22 31 0 6 5 11 11 11 15 0 7 -86 -16 -168 -12 -40
-21 -59 -30 -56 -16 6 -29 -88 -20 -139 l7 -35 94 96 c99 101 98 98 78 164 -6
19 20 47 118 130 48 41 64 59 55 66 -30 23 -56 27 -132 20z"/>
<path d="M4283 2237 c-47 -70 -120 -195 -142 -241 -29 -62 -78 -202 -84 -241
l-6 -30 12 28 c6 15 17 25 23 23 8 -3 24 31 46 97 19 56 47 122 61 147 15 25
42 70 60 100 18 30 40 66 49 80 9 14 13 34 9 47 -6 22 -7 22 -28 -10z"/>
<path d="M4562 1893 c-26 -38 -34 -53 -29 -53 2 0 16 18 31 40 29 45 28 56 -2
13z"/>
<path d="M4670 1773 c0 -10 4 -14 8 -8 4 6 11 13 16 18 5 4 2 7 -7 7 -10 0
-17 -8 -17 -17z"/>
<path d="M4718 1783 c7 -3 16 -2 19 1 4 3 -2 6 -13 5 -11 0 -14 -3 -6 -6z"/>
<path d="M4732 1730 c0 -14 2 -19 5 -12 2 6 2 18 0 25 -3 6 -5 1 -5 -13z"/>
<path d="M4661 1714 c0 -11 3 -14 6 -6 3 7 2 16 -1 19 -3 4 -6 -2 -5 -13z"/>
<path d="M4035 1710 c-3 -5 -1 -10 4 -10 6 0 11 5 11 10 0 6 -2 10 -4 10 -3 0
-8 -4 -11 -10z"/>
<path d="M3970 1685 c-7 -9 -10 -18 -7 -21 3 -3 10 4 17 15 13 25 8 27 -10 6z"/>
<path d="M4742 1680 c0 -14 2 -19 5 -12 2 6 2 18 0 25 -3 6 -5 1 -5 -13z"/>
<path d="M3975 1643 c-20 -15 -20 -15 1 -11 11 3 29 -1 39 -8 25 -19 40 -18
25 2 -24 28 -44 33 -65 17z"/>
<path d="M4060 1644 c0 -8 5 -12 10 -9 6 3 10 10 10 16 0 5 -4 9 -10 9 -5 0
-10 -7 -10 -16z"/>
<path d="M4727 1560 c-16 -28 -23 -50 -18 -50 12 0 54 77 49 91 -2 5 -16 -14
-31 -41z"/>
<path d="M4841 1501 c-8 -6 -9 -11 -3 -15 6 -3 14 -1 17 5 9 14 2 20 -14 10z"/>
<path d="M3618 1323 c-10 -2 -18 -8 -18 -13 0 -5 14 -4 30 1 45 16 36 25 -12
12z"/>
<path d="M3524 1274 c-18 -14 -18 -15 4 -4 12 6 22 13 22 15 0 8 -5 6 -26 -11z"/>
<path d="M0 290 l0 -290 190 0 c162 0 190 2 190 15 0 8 -4 15 -10 15 -12 0
-41 55 -34 63 3 3 -16 9 -43 12 -60 9 -82 28 -89 76 -4 21 -15 46 -25 55 -11
9 -19 25 -19 34 0 11 -10 20 -25 24 -31 8 -33 26 -2 27 16 1 18 2 5 6 -20 5
-20 8 -12 41 4 12 13 22 20 22 9 0 14 12 14 36 0 30 -2 34 -14 25 -11 -9 -15
-6 -20 14 -4 16 -13 25 -26 25 -13 0 -20 7 -20 20 0 13 7 20 19 20 14 0 17 6
13 25 -4 23 -9 25 -58 25 l-54 0 0 -290z m100 276 c0 -3 -4 -8 -10 -11 -5 -3
-10 -1 -10 4 0 6 5 11 10 11 6 0 10 -2 10 -4z"/>
</g>
</svg>
